<svg xmlns="http://www.w3.org/2000/svg" xmlns:xlink="http://www.w3.org/1999/xlink" data-v-0dd9719b="" version="1.0" preserveAspectRatio="xMidYMid meet" color-interpolation-filters="sRGB" style="margin: auto;" viewBox="107.74 98.13 124.52 39.87">   <g data-v-0dd9719b="" fill="#333" class="iconlettersvg-g iconlettersvg" transform="translate(107.74049377441406,98.12987186797773)"><g><g class="tp-name" transform="translate(0,0)"><g transform="scale(1)"><g transform="translate(0, 0)"><g class="name-imagesvg"><g><rect fill="#333" fill-opacity="0" stroke-width="2" x="0" y="0" width="44.7293711834934" height="39.868261397122545" class="image-rect"/> <svg x="0" y="0" width="44.7293711834934" height="39.868261397122545" filtersec="colorsb4448359648" class="image-svg-svg primary" style="overflow: visible;"><svg xmlns="http://www.w3.org/2000/svg" viewBox="0 0 137.93 122.94"><title>资源 7</title><path fill="#eb6700" d="M0 0h62.37v122.94H0z"/><path fill="#f3ce00" d="M0 47.08v28.49h62.07V47.08H0z"/><path fill="#c71343" d="M62.07 47.08h13.52v28.56H62.07z"/><path fill="#45207b" d="M75.56 0h62.37v122.94H75.56z"/><path fill="#4195d2" d="M75.56 47.08v28.49h62.37V47.08H75.56z"/></svg></svg> <!----></g></g></g><g transform="translate(44.7293711834934, 0)"><g class="name-imagesvg"><g><rect fill="#333" fill-opacity="0" stroke-width="2" x="0" y="0" width="40.01522762452209" height="39.868261397122545" class="image-rect"/> <svg x="0" y="0" width="40.01522762452209" height="39.868261397122545" filtersec="colorsb2379199950" class="image-svg-svg primary" style="overflow: visible;"><svg xmlns="http://www.w3.org/2000/svg" viewBox="0 0 141.52 141.06"><title>资源 15</title><path d="M131.94 66A66 66 0 1 1 66 0a66 66 0 0 1 65.94 66z" fill="#cfb371"/><path d="M131.92 66.09a65.94 65.94 0 0 1-112.74 46.48l93.55-93.25a66.91 66.91 0 0 1 19.19 46.77z" fill="#008296"/><path fill="#c71343" d="M141.52 120.97L76.15 55.6 56.06 75.69l65.37 65.37 20.09-20.09z"/></svg></svg> <!----></g></g></g><g transform="translate(84.7445988080155, 0)"><g class="name-imagesvg"><g><rect fill="#333" fill-opacity="0" stroke-width="2" x="0" y="0" width="39.774408604763146" height="39.868261397122545" class="image-rect"/> <svg x="0" y="0" width="39.774408604763146" height="39.868261397122545" filtersec="colorsb6322644425" class="image-svg-svg primary" style="overflow: visible;"><svg xmlns="http://www.w3.org/2000/svg" viewBox="0 0 127.14 127.44"><title>资源 14</title><path fill="#008296" d="M127.14 127.44L63.56 63.87 0 127.44h127.14z"/><path fill="#eb6700" d="M127.14 127.44V0L63.56 63.87l63.58 63.57z"/><path fill="#c71343" d="M0 0v127.44l63.56-63.57L0 0z"/></svg></svg> <!----></g></g></g></g></g></g> <g data-gra="path-slogan" fill-rule="" class="tp-slogan" fill="#333" transform="translate(42.20950698852539,45.868263244628906)"><!----> <!----> <g transform="scale(1, 1)"/></g></g></svg>