<?xml version="1.0" encoding="UTF-8"?>
<!DOCTYPE svg PUBLIC "-//W3C//DTD SVG 1.1//EN" "http://www.w3.org/Graphics/SVG/1.1/DTD/svg11.dtd">
<svg xmlns="http://www.w3.org/2000/svg" version="1.1" width="409px" height="271px" style="shape-rendering:geometricPrecision; text-rendering:geometricPrecision; image-rendering:optimizeQuality; fill-rule:evenodd; clip-rule:evenodd" xmlns:xlink="http://www.w3.org/1999/xlink">
<g><path style="opacity:1" fill="#aec1ee" d="M 282.5,38.5 C 278.5,38.5 274.5,38.5 270.5,38.5C 225.313,11.6138 180.313,11.9471 135.5,39.5C 132.038,38.5184 128.371,38.185 124.5,38.5C 146.751,19.8143 172.585,10.481 202,10.5C 224.536,10.0925 245.703,15.2592 265.5,26C 271.63,29.6439 277.297,33.8106 282.5,38.5 Z"/></g>
<g><path style="opacity:1" fill="#b9c2ed" d="M 124.5,38.5 C 128.371,38.185 132.038,38.5184 135.5,39.5C 123.833,47.8333 113.833,57.8333 105.5,69.5C 102.833,69.1667 100.167,68.8333 97.5,68.5C 99.7279,64.388 102.228,60.388 105,56.5C 110.764,49.5644 117.264,43.5644 124.5,38.5 Z"/></g>
<g><path style="opacity:1" fill="#b8c0ed" d="M 270.5,38.5 C 274.5,38.5 278.5,38.5 282.5,38.5C 289.736,43.5644 296.236,49.5644 302,56.5C 304.772,60.388 307.272,64.388 309.5,68.5C 306.833,68.8333 304.167,69.1667 301.5,69.5C 292.833,57.5 282.5,47.1667 270.5,38.5 Z"/></g>
<g><path style="opacity:1" fill="#c1c1ed" d="M 97.5,68.5 C 100.167,68.8333 102.833,69.1667 105.5,69.5C 100.086,78.3287 95.7524,87.662 92.5,97.5C 89.5,97.5 86.5,97.5 83.5,97.5C 86.3221,86.858 90.9888,77.1913 97.5,68.5 Z"/></g>
<g><path style="opacity:1" fill="#c0c1ed" d="M 309.5,68.5 C 316.011,77.1913 320.678,86.858 323.5,97.5C 320.5,97.5 317.5,97.5 314.5,97.5C 311.314,87.595 306.98,78.2617 301.5,69.5C 304.167,69.1667 306.833,68.8333 309.5,68.5 Z"/></g>
<g><path style="opacity:1" fill="#aac0ed" d="M 61.5,113.5 C 60.0813,114.451 58.4147,114.784 56.5,114.5C 54.3152,112.238 51.6485,110.738 48.5,110C 34.1667,109.667 19.8333,109.333 5.5,109C 4.0745,107.286 4.40783,105.953 6.5,105C 21.1667,104.333 35.8333,104.333 50.5,105C 55.3637,106.416 59.0303,109.249 61.5,113.5 Z"/></g>
<g><path style="opacity:1" fill="#aec3ee" d="M 124.5,110.5 C 121.5,110.5 118.5,110.5 115.5,110.5C 105.418,110.193 95.4176,110.526 85.5,111.5C 83.4938,110.834 81.6605,110.834 80,111.5C 79.5357,110.906 79.369,110.239 79.5,109.5C 86.4418,105.054 94.1085,103.387 102.5,104.5C 107.167,104.667 111.833,104.833 116.5,105C 119.756,106.116 122.422,107.949 124.5,110.5 Z"/></g>
<g><path style="opacity:1" fill="#a9c0ed" d="M 277.5,104.5 C 296.17,104.333 314.836,104.5 333.5,105C 334.38,106.356 334.714,107.856 334.5,109.5C 315.164,109.667 295.83,109.5 276.5,109C 275.257,107.184 275.59,105.684 277.5,104.5 Z"/></g>
<g><path style="opacity:1" fill="#aac0ed" d="M 395.5,110.5 C 392.5,110.5 389.5,110.5 386.5,110.5C 372.245,109.518 357.912,109.184 343.5,109.5C 343.5,107.833 343.5,106.167 343.5,104.5C 357.837,104.333 372.171,104.5 386.5,105C 390.2,105.843 393.2,107.676 395.5,110.5 Z"/></g>
<g><path style="opacity:1" fill="#afc1ed" d="M 151.5,113.5 C 147.5,113.5 143.5,113.5 139.5,113.5C 139.337,111.143 139.503,108.81 140,106.5C 141.588,104.032 143.422,103.866 145.5,106C 148.094,108.086 150.094,110.586 151.5,113.5 Z"/></g>
<g><path style="opacity:1" fill="#bcc0ed" d="M 139.5,113.5 C 143.5,113.5 147.5,113.5 151.5,113.5C 155.436,117.938 159.602,122.271 164,126.5C 166.543,130.256 165.71,132.089 161.5,132C 156.333,126.167 151.167,120.333 146,114.5C 145.501,119.489 145.334,124.489 145.5,129.5C 143.5,129.5 141.5,129.5 139.5,129.5C 139.5,124.167 139.5,118.833 139.5,113.5 Z"/></g>
<g><path style="opacity:1" fill="#b2c0ed" d="M 266.5,120.5 C 264.833,120.5 263.167,120.5 261.5,120.5C 261.334,115.821 261.501,111.155 262,106.5C 263.667,103.833 265.333,103.833 267,106.5C 267.773,111.252 267.607,115.919 266.5,120.5 Z"/></g>
<g><path style="opacity:1" fill="#b9c2ee" d="M 79.5,109.5 C 79.369,110.239 79.5357,110.906 80,111.5C 81.6605,110.834 83.4938,110.834 85.5,111.5C 81.5959,114.324 78.9292,117.991 77.5,122.5C 76.4479,120.744 74.7812,120.077 72.5,120.5C 73.6525,116.027 75.9859,112.361 79.5,109.5 Z"/></g>
<g><path style="opacity:1" fill="#bac1ed" d="M 115.5,110.5 C 118.5,110.5 121.5,110.5 124.5,110.5C 126.836,112.004 128.669,114.004 130,116.5C 131.195,120.751 131.695,125.085 131.5,129.5C 129.833,129.5 128.167,129.5 126.5,129.5C 127.145,120.432 123.478,114.099 115.5,110.5 Z"/></g>
<g><path style="opacity:1" fill="#b4c0ed" d="M 199.5,120.5 C 197.833,120.5 196.167,120.5 194.5,120.5C 194.5,115.833 194.5,111.167 194.5,106.5C 195.696,104.019 197.196,104.019 199,106.5C 199.499,111.155 199.666,115.821 199.5,120.5 Z"/></g>
<g><path style="opacity:1" fill="#b3c0ed" d="M 212.5,106.5 C 212.5,111.167 212.5,115.833 212.5,120.5C 210.833,120.5 209.167,120.5 207.5,120.5C 207.334,115.821 207.501,111.155 208,106.5C 209.65,103.894 211.15,103.894 212.5,106.5 Z"/></g>
<g><path style="opacity:1" fill="#bac0ed" d="M 386.5,110.5 C 389.5,110.5 392.5,110.5 395.5,110.5C 397.836,112.004 399.669,114.004 401,116.5C 402.195,120.751 402.695,125.085 402.5,129.5C 400.833,129.5 399.167,129.5 397.5,129.5C 398.14,120.421 394.473,114.087 386.5,110.5 Z"/></g>
<g><path style="opacity:1" fill="#c0c1ed" d="M 61.5,113.5 C 62.973,116.017 63.6397,118.85 63.5,122C 63.7001,124.866 63.0334,127.366 61.5,129.5C 59.5,129.5 57.5,129.5 55.5,129.5C 58.9322,124.747 59.2655,119.747 56.5,114.5C 58.4147,114.784 60.0813,114.451 61.5,113.5 Z"/></g>
<g><path style="opacity:1" fill="#c4c4ee" d="M 194.5,106.5 C 194.5,111.167 194.5,115.833 194.5,120.5C 196.167,120.5 197.833,120.5 199.5,120.5C 199.5,123.5 199.5,126.5 199.5,129.5C 197.5,129.5 195.5,129.5 193.5,129.5C 193.175,121.648 193.508,113.982 194.5,106.5 Z"/></g>
<g><path style="opacity:1" fill="#c4c4ee" d="M 212.5,106.5 C 213.492,113.648 213.825,120.981 213.5,128.5C 211.621,129.341 209.621,129.675 207.5,129.5C 207.5,126.5 207.5,123.5 207.5,120.5C 209.167,120.5 210.833,120.5 212.5,120.5C 212.5,115.833 212.5,111.167 212.5,106.5 Z"/></g>
<g><path style="opacity:1" fill="#c7c0ec" d="M 72.5,120.5 C 74.7812,120.077 76.4479,120.744 77.5,122.5C 77.5,126.833 77.5,131.167 77.5,135.5C 75.8333,135.5 74.1667,135.5 72.5,135.5C 72.5,130.5 72.5,125.5 72.5,120.5 Z"/></g>
<g><path style="opacity:1" fill="#cac1ec" d="M 261.5,120.5 C 263.167,120.5 264.833,120.5 266.5,120.5C 266.741,123.794 265.908,126.794 264,129.5C 261.967,132.03 259.8,134.363 257.5,136.5C 256.542,136.047 255.708,135.381 255,134.5C 244.382,134.598 233.882,134.598 223.5,134.5C 232.658,133.67 241.991,133.17 251.5,133C 257.228,130.77 260.561,126.603 261.5,120.5 Z"/></g>
<g><path style="opacity:1" fill="#d2c3ed" d="M 55.5,129.5 C 57.5,129.5 59.5,129.5 61.5,129.5C 60.0726,132.764 57.7392,135.264 54.5,137C 56.8199,138.966 58.8199,141.133 60.5,143.5C 58.2646,143.205 56.2646,143.539 54.5,144.5C 52.66,142.832 50.66,141.332 48.5,140C 34.1667,139.667 19.8333,139.333 5.5,139C 4.16667,137.333 4.16667,135.667 5.5,134C 20.5,133.667 35.5,133.333 50.5,133C 52.3464,131.97 54.0131,130.804 55.5,129.5 Z"/></g>
<g><path style="opacity:1" fill="#d4c3ed" d="M 223.5,134.5 C 233.882,134.598 244.382,134.598 255,134.5C 255.708,135.381 256.542,136.047 257.5,136.5C 259.99,138.412 261.99,140.745 263.5,143.5C 261.5,143.5 259.5,143.5 257.5,143.5C 255.286,142.126 252.953,140.959 250.5,140C 241.167,139.667 231.833,139.333 222.5,139C 220.957,136.955 221.29,135.455 223.5,134.5 Z"/></g>
<g><path style="opacity:1" fill="#d2c3ed" d="M 276.5,133.5 C 295.17,133.333 313.836,133.5 332.5,134C 334.658,135.312 334.991,136.978 333.5,139C 314.5,139.667 295.5,139.667 276.5,139C 275.248,137.172 275.248,135.339 276.5,133.5 Z"/></g>
<g><path style="opacity:1" fill="#d2c0ec" d="M 139.5,129.5 C 141.5,129.5 143.5,129.5 145.5,129.5C 145.5,134.167 145.5,138.833 145.5,143.5C 143.5,143.5 141.5,143.5 139.5,143.5C 139.5,138.833 139.5,134.167 139.5,129.5 Z"/></g>
<g><path style="opacity:1" fill="#dac4ed" d="M 213.5,128.5 C 213.829,141.344 213.495,154.011 212.5,166.5C 212.5,162.167 212.5,157.833 212.5,153.5C 210.833,153.5 209.167,153.5 207.5,153.5C 207.5,145.5 207.5,137.5 207.5,129.5C 209.621,129.675 211.621,129.341 213.5,128.5 Z"/></g>
<g><path style="opacity:1" fill="#dfc1ec" d="M 54.5,144.5 C 56.2646,143.539 58.2646,143.205 60.5,143.5C 62.68,146.381 63.68,149.714 63.5,153.5C 61.8333,153.5 60.1667,153.5 58.5,153.5C 57.9579,150.088 56.6246,147.088 54.5,144.5 Z"/></g>
<g><path style="opacity:1" fill="#d7c1ec" d="M 126.5,129.5 C 128.167,129.5 129.833,129.5 131.5,129.5C 131.5,135.833 131.5,142.167 131.5,148.5C 129.833,148.5 128.167,148.5 126.5,148.5C 126.5,142.167 126.5,135.833 126.5,129.5 Z"/></g>
<g><path style="opacity:1" fill="#d9c4ed" d="M 193.5,129.5 C 195.5,129.5 197.5,129.5 199.5,129.5C 199.5,135.5 199.5,141.5 199.5,147.5C 197.951,147.736 196.451,147.736 195,147.5C 194.87,151.607 194.37,154.94 193.5,157.5C 193.5,148.167 193.5,138.833 193.5,129.5 Z"/></g>
<g><path style="opacity:1" fill="#dfc1ec" d="M 257.5,143.5 C 259.5,143.5 261.5,143.5 263.5,143.5C 265.976,146.288 266.976,149.622 266.5,153.5C 264.833,153.5 263.167,153.5 261.5,153.5C 261.138,149.741 259.805,146.407 257.5,143.5 Z"/></g>
<g><path style="opacity:1" fill="#d7c1ec" d="M 397.5,129.5 C 399.167,129.5 400.833,129.5 402.5,129.5C 402.5,135.833 402.5,142.167 402.5,148.5C 400.833,148.5 399.167,148.5 397.5,148.5C 397.5,142.167 397.5,135.833 397.5,129.5 Z"/></g>
<g><path style="opacity:1" fill="#e1c1eb" d="M 139.5,143.5 C 141.5,143.5 143.5,143.5 145.5,143.5C 145.5,146.833 145.5,150.167 145.5,153.5C 143.5,153.5 141.5,153.5 139.5,153.5C 139.5,150.167 139.5,146.833 139.5,143.5 Z"/></g>
<g><path style="opacity:1" fill="#e1c3ec" d="M 189.5,153.5 C 187.167,153.5 184.833,153.5 182.5,153.5C 179.168,151 176.334,148 174,144.5C 173.564,142.704 174.231,141.371 176,140.5C 180.99,144.324 185.49,148.657 189.5,153.5 Z"/></g>
<g><path style="opacity:1" fill="#ddc1ec" d="M 72.5,135.5 C 74.1667,135.5 75.8333,135.5 77.5,135.5C 77.5,141.5 77.5,147.5 77.5,153.5C 75.8333,153.5 74.1667,153.5 72.5,153.5C 72.5,147.5 72.5,141.5 72.5,135.5 Z"/></g>
<g><path style="opacity:1" fill="#efc2eb" d="M 139.5,153.5 C 141.5,153.5 143.5,153.5 145.5,153.5C 145.666,157.846 145.499,162.179 145,166.5C 143.333,169.167 141.667,169.167 140,166.5C 139.501,162.179 139.334,157.846 139.5,153.5 Z"/></g>
<g><path style="opacity:1" fill="#f0c1eb" d="M 58.5,153.5 C 60.1667,153.5 61.8333,153.5 63.5,153.5C 63.6658,158.179 63.4992,162.845 63,167.5C 61.8869,168.711 60.7202,168.711 59.5,167.5C 58.5067,162.88 58.1734,158.214 58.5,153.5 Z"/></g>
<g><path style="opacity:1" fill="#f1c2eb" d="M 72.5,153.5 C 74.1667,153.5 75.8333,153.5 77.5,153.5C 77.6658,158.179 77.4992,162.845 77,167.5C 75.6439,168.38 74.1439,168.714 72.5,168.5C 72.5,163.5 72.5,158.5 72.5,153.5 Z"/></g>
<g><path style="opacity:1" fill="#eec2eb" d="M 199.5,147.5 C 199.812,154.422 199.479,161.256 198.5,168C 197.167,168.667 195.833,168.667 194.5,168C 190.288,163.293 186.288,158.46 182.5,153.5C 184.833,153.5 187.167,153.5 189.5,153.5C 190.5,155.167 191.833,156.5 193.5,157.5C 194.37,154.94 194.87,151.607 195,147.5C 196.451,147.736 197.951,147.736 199.5,147.5 Z"/></g>
<g><path style="opacity:1" fill="#f0c2eb" d="M 207.5,153.5 C 209.167,153.5 210.833,153.5 212.5,153.5C 212.5,157.833 212.5,162.167 212.5,166.5C 211.304,168.981 209.804,168.981 208,166.5C 207.501,162.179 207.334,157.846 207.5,153.5 Z"/></g>
<g><path style="opacity:1" fill="#f0c2eb" d="M 261.5,153.5 C 263.167,153.5 264.833,153.5 266.5,153.5C 267.647,157.646 267.814,161.98 267,166.5C 265.333,169.167 263.667,169.167 262,166.5C 261.501,162.179 261.334,157.846 261.5,153.5 Z"/></g>
<g><path style="opacity:1" fill="#edc4ec" d="M 397.5,148.5 C 399.167,148.5 400.833,148.5 402.5,148.5C 402.678,155.151 400.011,160.151 394.5,163.5C 392.09,163.7 389.424,163.366 386.5,162.5C 392.561,159.708 396.228,155.042 397.5,148.5 Z"/></g>
<g><path style="opacity:1" fill="#f0c2eb" d="M 126.5,148.5 C 128.167,148.5 129.833,148.5 131.5,148.5C 131.83,154.868 131.496,161.202 130.5,167.5C 129.28,168.711 128.113,168.711 127,167.5C 126.5,161.175 126.334,154.842 126.5,148.5 Z"/></g>
<g><path style="opacity:1" fill="#f7c1eb" d="M 276.5,163.5 C 295.833,163.5 315.167,163.5 334.5,163.5C 334.714,165.144 334.38,166.644 333.5,168C 314.833,168.667 296.167,168.667 277.5,168C 275.218,166.916 274.884,165.416 276.5,163.5 Z"/></g>
<g><path style="opacity:1" fill="#f7c6ec" d="M 386.5,162.5 C 389.424,163.366 392.09,163.7 394.5,163.5C 392.88,165.984 390.547,167.484 387.5,168C 372.837,168.5 358.17,168.667 343.5,168.5C 343.141,166.234 343.808,164.401 345.5,163C 359.163,162.5 372.829,162.333 386.5,162.5 Z"/></g>
<g><path style="opacity:1" fill="#e1c2ec" d="M 310.5,203.5 C 308.052,202.527 305.385,202.194 302.5,202.5C 305.973,195.553 309.473,188.553 313,181.5C 313.813,179.564 314.313,177.564 314.5,175.5C 317.5,175.5 320.5,175.5 323.5,175.5C 320.76,185.643 316.427,194.976 310.5,203.5 Z"/></g>
<g><path style="opacity:1" fill="#e2c2ec" d="M 108.5,206.5 C 105.167,206.5 101.833,206.5 98.5,206.5C 91.9489,197.398 86.9489,187.398 83.5,176.5C 86.4281,175.516 89.4281,175.183 92.5,175.5C 95.9981,186.831 101.331,197.164 108.5,206.5 Z"/></g>
<g><path style="opacity:1" fill="#ebc3ec" d="M 302.5,202.5 C 305.385,202.194 308.052,202.527 310.5,203.5C 302.943,215.724 293.61,226.39 282.5,235.5C 278.702,234.517 274.702,234.183 270.5,234.5C 274.912,230.446 279.579,226.613 284.5,223C 290.738,216.27 296.738,209.436 302.5,202.5 Z"/></g>
<g><path style="opacity:1" fill="#efc2eb" d="M 98.5,206.5 C 101.833,206.5 105.167,206.5 108.5,206.5C 122.843,226.164 141.509,240.164 164.5,248.5C 159.451,248.598 154.285,248.598 149,248.5C 148.536,249.094 148.369,249.761 148.5,250.5C 127.828,240.501 111.161,225.834 98.5,206.5 Z"/></g>
<g><path style="opacity:1" fill="#f4c3eb" d="M 270.5,234.5 C 274.702,234.183 278.702,234.517 282.5,235.5C 247.671,261.652 209.004,269.152 166.5,258C 160.28,255.983 154.28,253.483 148.5,250.5C 148.369,249.761 148.536,249.094 149,248.5C 154.285,248.598 159.451,248.598 164.5,248.5C 201.984,259.565 237.318,254.898 270.5,234.5 Z"/></g>
</svg>
