<svg width="24" height="24" viewBox="0 0 24 24" fill="none" xmlns="http://www.w3.org/2000/svg">
<g clip-path="url(#clip0_136_393)">
<path d="M23.4977 6.18518C23.3622 5.67484 23.095 5.20906 22.7228 4.83449C22.3506 4.45992 21.8866 4.1897 21.3771 4.0509C18.266 3.67599 15.1334 3.50705 12 3.54518C8.86655 3.50705 5.73401 3.67599 2.62285 4.0509C2.11339 4.1897 1.64934 4.45992 1.27718 4.83449C0.905012 5.20906 0.637792 5.67484 0.502278 6.18518C0.155792 8.10382 -0.0123537 10.0504 -7.38207e-06 12C-0.0123537 13.9497 0.155792 15.8963 0.502278 17.8149C0.637792 18.3252 0.905012 18.791 1.27718 19.1656C1.64934 19.5402 2.11339 19.8104 2.62285 19.9492C5.73401 20.3241 8.86655 20.493 12 20.4549C15.1334 20.493 18.266 20.3241 21.3771 19.9492C21.8866 19.8104 22.3506 19.5402 22.7228 19.1656C23.095 18.791 23.3622 18.3252 23.4977 17.8149C23.8442 15.8963 24.0123 13.9497 24 12C24.0123 10.0504 23.8442 8.10382 23.4977 6.18518ZM9.54514 15.5692V8.4309L15.8177 12L9.54514 15.5692Z" fill="#0054B6"/>
</g>
<defs>
<clipPath id="clip0_136_393">
<rect width="24" height="24" fill="white"/>
</clipPath>
</defs>
</svg>
