<svg data-v-0dd9719b="" version="1.0" xmlns="http://www.w3.org/2000/svg" xmlns:xlink="http://www.w3.org/1999/xlink" width="100%" height="100%" viewBox="0 0 340.000000 250.000000" preserveAspectRatio="xMidYMid meet" color-interpolation-filters="sRGB" style="margin: auto;">   <g data-v-0dd9719b="" class="iconmbgsvg" transform="translate(65.79499816894531,58.69696044921875)"><g fill="#fbc2eb" hollow-target="textRect"><g transform="translate(37.95500183105469,0)" mask="url(#2aea4a35-037f-4b8e-afaa-c7206f8664a0)"><g><rect fill="#fbc2eb" fill-opacity="0" stroke-width="2" x="0" y="0" width="132.5" height="132.6060848678943" class="image-rect"></rect> <svg x="0" y="0" width="132.5" height="132.6060848678943" filtersec="colorsb8224439657" class="image-svg-svg primary" style="overflow: visible;"><svg fill="#000000" xmlns="http://www.w3.org/2000/svg" viewBox="5.015323638916016 4.975105285644531 89.96699523925781 90.03902435302734" x="0px" y="0px"><path d="m 49.998819,4.9751055 c -24.821867,0 -44.9834934,20.1710675 -44.9834934,45.0195135 0,24.848447 20.1616264,45.019514 44.9834934,45.019514 24.821866,0 44.983493,-20.171067 44.983493,-45.019514 0,-24.848446 -20.161627,-45.0195135 -44.983493,-45.0195135 z m 0,3.0318545 c 23.226908,0 42.019464,18.787331 42.019464,41.987659 0,23.200328 -18.792556,41.987659 -42.019464,41.987659 -23.226908,0 -42.0194648,-18.787331 -42.0194648,-41.987659 0,-23.200328 18.7925568,-41.987659 42.0194648,-41.987659 z" color="#000"></path></svg></svg> <!----></g><rect v-gra="id" width="144.5" height="144.6060791015625" transform="translate(-6, -6)" style="pointer-events:none;" fill="url(#s6IL9dA-PAJD27zIAAOS0)"></rect></g> <g transform="translate(0,49.51137351989746)"><g data-gra="path-name" fill-rule="" class="tp-name" fill="url(#ce79ebb4-b261-461b-b879-176661c0cd3a)"><g transform="scale(1)"><g><path d="M28.5-16.4Q30.69-17.59 31.98-19.7L31.98-19.7Q33.33-21.88 33.33-24.44L33.33-24.44Q33.33-28.21 30.64-30.9L30.64-30.9Q27.98-33.57 24.21-33.57L24.21-33.57 3.59-33.57Q2.98-33.57 2.53-33.14L2.53-33.14Q2.11-32.7 2.11-32.09L2.11-32.09Q2.11-31.48 2.53-31.06L2.53-31.06Q2.98-30.64 3.59-30.64L3.59-30.64 24.21-30.64Q26.76-30.64 28.56-28.82L28.56-28.82Q30.38-27 30.38-24.44L30.38-24.44Q30.38-21.88 28.56-20.07L28.56-20.07Q26.76-18.25 24.21-18.25L24.21-18.25 3.59-18.25Q2.98-18.25 2.53-17.82L2.53-17.82Q2.11-17.4 2.11-16.8L2.11-16.8Q2.11-16.16 2.53-15.74L2.53-15.74Q2.98-15.32 3.59-15.32L3.59-15.32 22.44-15.32Q25.71-15.32 28.05-12.97L28.05-12.97Q30.38-10.65 30.38-7.36L30.38-7.36 30.38-1.48Q30.38-0.87 30.82-0.42L30.82-0.42Q31.25 0 31.85 0L31.85 0Q32.46 0 32.88-0.42L32.88-0.42Q33.33-0.87 33.33-1.48L33.33-1.48 33.33-7.36Q33.33-13.16 28.5-16.4L28.5-16.4ZM67.29 0Q66.68 0 66.26-0.42L66.26-0.42Q65.81-0.87 65.81-1.48L65.81-1.48 65.81-22.68Q65.81-25.97 63.49-28.29L63.49-28.29Q61.15-30.64 57.88-30.64L57.88-30.64 48.44-30.64Q45.17-30.64 42.82-28.29L42.82-28.29Q40.5-25.97 40.5-22.68L40.5-22.68 40.5-1.48Q40.5-0.87 40.05-0.42L40.05-0.42Q39.63 0 39.02 0L39.02 0Q38.42 0 37.97-0.42L37.97-0.42Q37.55-0.87 37.55-1.48L37.55-1.48 37.55-22.68Q37.55-27.18 40.74-30.38L40.74-30.38Q43.93-33.57 48.44-33.57L48.44-33.57 57.88-33.57Q62.38-33.57 65.58-30.38L65.58-30.38Q68.77-27.18 68.77-22.68L68.77-22.68 68.77-1.48Q68.77-0.87 68.32-0.42L68.32-0.42Q67.9 0 67.29 0L67.29 0ZM102.73-33.57Q102.12-33.57 101.7-33.14L101.7-33.14Q101.25-32.7 101.25-32.09L101.25-32.09 101.25-5.3 93.21-14.24Q92.81-14.69 92.21-14.71L92.21-14.71Q91.6-14.77 91.15-14.34L91.15-14.34Q90.68-13.95 90.65-13.34L90.65-13.34Q90.62-12.71 91.02-12.26L91.02-12.26 101.62-0.47Q102.07 0 102.73 0L102.73 0Q102.99 0 103.25-0.11L103.25-0.11Q104.2-0.45 104.2-1.48L104.2-1.48 104.2-32.09Q104.2-32.7 103.75-33.14L103.75-33.14Q103.33-33.57 102.73-33.57L102.73-33.57ZM86.14-21.3L75.54-33.09Q74.88-33.83 73.93-33.46L73.93-33.46Q72.98-33.12 72.98-32.09L72.98-32.09 72.98-1.48Q72.98-0.87 73.41-0.42L73.41-0.42Q73.85 0 74.46 0L74.46 0Q75.07 0 75.49-0.42L75.49-0.42Q75.94-0.87 75.94-1.48L75.94-1.48 75.94-28.27 83.95-19.33Q84.38-18.88 84.98-18.85L84.98-18.85Q85.59-18.83 86.04-19.22L86.04-19.22Q86.48-19.64 86.54-20.25L86.54-20.25Q86.56-20.86 86.14-21.3L86.14-21.3ZM109.9-33.57Q109.29-33.57 108.84-33.14L108.84-33.14Q108.42-32.7 108.42-32.09L108.42-32.09 108.42-1.48Q108.42-0.87 108.84-0.42L108.84-0.42Q109.29 0 109.9 0L109.9 0Q110.5 0 110.93-0.42L110.93-0.42Q111.38-0.87 111.38-1.48L111.38-1.48 111.38-32.09Q111.38-32.7 110.93-33.14L110.93-33.14Q110.5-33.57 109.9-33.57L109.9-33.57ZM139.64-26.21L139.64-32.09Q139.64-32.7 139.19-33.14L139.19-33.14Q138.77-33.57 138.16-33.57L138.16-33.57Q137.56-33.57 137.14-33.14L137.14-33.14Q136.69-32.7 136.69-32.09L136.69-32.09 136.69-26.21Q136.69-22.91 134.37-20.59L134.37-20.59Q132.02-18.25 128.75-18.25L128.75-18.25 116.96-18.25Q116.36-18.25 115.91-17.82L115.91-17.82Q115.49-17.4 115.49-16.8L115.49-16.8Q115.49-16.16 115.91-15.74L115.91-15.74Q116.36-15.32 116.96-15.32L116.96-15.32 128.75-15.32Q132.02-15.32 134.37-12.97L134.37-12.97Q136.69-10.65 136.69-7.36L136.69-7.36 136.69-1.48Q136.69-0.87 137.14-0.42L137.14-0.42Q137.56 0 138.16 0L138.16 0Q138.77 0 139.19-0.42L139.19-0.42Q139.64-0.87 139.64-1.48L139.64-1.48 139.64-7.36Q139.64-10.34 138.14-12.87L138.14-12.87Q136.69-15.35 134.21-16.8L134.21-16.8Q136.69-18.22 138.14-20.7L138.14-20.7Q139.64-23.26 139.64-26.21L139.64-26.21ZM173.6-2.95L145.34-2.95Q144.73-2.95 144.28-2.5L144.28-2.5Q143.86-2.08 143.86-1.48L143.86-1.48Q143.86-0.87 144.28-0.42L144.28-0.42Q144.73 0 145.34 0L145.34 0 173.6 0Q174.21 0 174.63-0.42L174.63-0.42Q175.08-0.87 175.08-1.48L175.08-1.48Q175.08-2.08 174.63-2.5L174.63-2.5Q174.21-2.95 173.6-2.95L173.6-2.95ZM145.34-30.64L173.6-30.64Q174.21-30.64 174.63-31.06L174.63-31.06Q175.08-31.48 175.08-32.09L175.08-32.09Q175.08-32.7 174.63-33.14L174.63-33.14Q174.21-33.57 173.6-33.57L173.6-33.57 145.34-33.57Q144.73-33.57 144.28-33.14L144.28-33.14Q143.86-32.7 143.86-32.09L143.86-32.09Q143.86-31.48 144.28-31.06L144.28-31.06Q144.73-30.64 145.34-30.64L145.34-30.64ZM173.6-18.25L145.34-18.25Q144.73-18.25 144.28-17.82L144.28-17.82Q143.86-17.4 143.86-16.8L143.86-16.8Q143.86-16.16 144.28-15.74L144.28-15.74Q144.73-15.32 145.34-15.32L145.34-15.32 173.6-15.32Q174.21-15.32 174.63-15.74L174.63-15.74Q175.08-16.16 175.08-16.8L175.08-16.8Q175.08-17.4 174.63-17.82L174.63-17.82Q174.21-18.25 173.6-18.25L173.6-18.25ZM199.63 0L180.77 0Q180.17 0 179.72-0.42L179.72-0.42Q179.3-0.87 179.3-1.48L179.3-1.48Q179.3-2.08 179.72-2.5L179.72-2.5Q180.17-2.95 180.77-2.95L180.77-2.95 199.63-2.95Q202.9-2.95 205.24-5.27L205.24-5.27Q207.56-7.62 207.56-10.89L207.56-10.89 207.56-22.68Q207.56-25.97 205.24-28.29L205.24-28.29Q202.9-30.64 199.63-30.64L199.63-30.64 180.77-30.64Q180.17-30.64 179.72-31.06L179.72-31.06Q179.3-31.48 179.3-32.09L179.3-32.09Q179.3-32.7 179.72-33.14L179.72-33.14Q180.17-33.57 180.77-33.57L180.77-33.57 199.63-33.57Q204.13-33.57 207.33-30.38L207.33-30.38Q210.52-27.18 210.52-22.68L210.52-22.68 210.52-10.89Q210.52-6.38 207.33-3.19L207.33-3.19Q204.13 0 199.63 0L199.63 0Z" transform="translate(-2.109999895095825, 33.58333206176758)"></path></g> <!----> <!----> <!----> <!----> <!----> <!----> <!----></g></g> <!----></g></g></g><mask id="420ccfc2-e377-4bc5-b7fc-c0a309a50b5e"><g fill="white"><g><rect fill-opacity="1" stroke-width="2" x="0" y="0" width="132.5" height="132.6060848678943" class="image-rect"></rect> <svg x="0" y="0" width="132.5" height="132.6060848678943" filtersec="colorsb8224439657" class="image-svg-svg primary" style="overflow: visible;"><svg xmlns="http://www.w3.org/2000/svg" viewBox="5.015323638916016 4.975105285644531 89.96699523925781 90.03902435302734" x="0px" y="0px"><path d="m 49.998819,4.9751055 c -24.821867,0 -44.9834934,20.1710675 -44.9834934,45.0195135 0,24.848447 20.1616264,45.019514 44.9834934,45.019514 24.821866,0 44.983493,-20.171067 44.983493,-45.019514 0,-24.848446 -20.161627,-45.0195135 -44.983493,-45.0195135 z m 0,3.0318545 c 23.226908,0 42.019464,18.787331 42.019464,41.987659 0,23.200328 -18.792556,41.987659 -42.019464,41.987659 -23.226908,0 -42.0194648,-18.787331 -42.0194648,-41.987659 0,-23.200328 18.7925568,-41.987659 42.0194648,-41.987659 z" color="#000"></path></svg></svg> </g></g> <g transform="translate(-37.95500183105469,49.51137351989746)"><rect fill="black" fill-opacity="1" x="-3.5" y="-3.5" width="215.41000366210938" height="40.58333206176758"></rect><rect fill="black" fill-opacity="1" x="-3.5" y="-3.5"></rect></g><g transform="translate(-37.95500183105469,49.51137351989746)" fill="black"><g data-gra="path-name" fill-rule="" class="tp-name"><g transform="scale(1)"><g><path d="M28.5-16.4Q30.69-17.59 31.98-19.7L31.98-19.7Q33.33-21.88 33.33-24.44L33.33-24.44Q33.33-28.21 30.64-30.9L30.64-30.9Q27.98-33.57 24.21-33.57L24.21-33.57 3.59-33.57Q2.98-33.57 2.53-33.14L2.53-33.14Q2.11-32.7 2.11-32.09L2.11-32.09Q2.11-31.48 2.53-31.06L2.53-31.06Q2.98-30.64 3.59-30.64L3.59-30.64 24.21-30.64Q26.76-30.64 28.56-28.82L28.56-28.82Q30.38-27 30.38-24.44L30.38-24.44Q30.38-21.88 28.56-20.07L28.56-20.07Q26.76-18.25 24.21-18.25L24.21-18.25 3.59-18.25Q2.98-18.25 2.53-17.82L2.53-17.82Q2.11-17.4 2.11-16.8L2.11-16.8Q2.11-16.16 2.53-15.74L2.53-15.74Q2.98-15.32 3.59-15.32L3.59-15.32 22.44-15.32Q25.71-15.32 28.05-12.97L28.05-12.97Q30.38-10.65 30.38-7.36L30.38-7.36 30.38-1.48Q30.38-0.87 30.82-0.42L30.82-0.42Q31.25 0 31.85 0L31.85 0Q32.46 0 32.88-0.42L32.88-0.42Q33.33-0.87 33.33-1.48L33.33-1.48 33.33-7.36Q33.33-13.16 28.5-16.4L28.5-16.4ZM67.29 0Q66.68 0 66.26-0.42L66.26-0.42Q65.81-0.87 65.81-1.48L65.81-1.48 65.81-22.68Q65.81-25.97 63.49-28.29L63.49-28.29Q61.15-30.64 57.88-30.64L57.88-30.64 48.44-30.64Q45.17-30.64 42.82-28.29L42.82-28.29Q40.5-25.97 40.5-22.68L40.5-22.68 40.5-1.48Q40.5-0.87 40.05-0.42L40.05-0.42Q39.63 0 39.02 0L39.02 0Q38.42 0 37.97-0.42L37.97-0.42Q37.55-0.87 37.55-1.48L37.55-1.48 37.55-22.68Q37.55-27.18 40.74-30.38L40.74-30.38Q43.93-33.57 48.44-33.57L48.44-33.57 57.88-33.57Q62.38-33.57 65.58-30.38L65.58-30.38Q68.77-27.18 68.77-22.68L68.77-22.68 68.77-1.48Q68.77-0.87 68.32-0.42L68.32-0.42Q67.9 0 67.29 0L67.29 0ZM102.73-33.57Q102.12-33.57 101.7-33.14L101.7-33.14Q101.25-32.7 101.25-32.09L101.25-32.09 101.25-5.3 93.21-14.24Q92.81-14.69 92.21-14.71L92.21-14.71Q91.6-14.77 91.15-14.34L91.15-14.34Q90.68-13.95 90.65-13.34L90.65-13.34Q90.62-12.71 91.02-12.26L91.02-12.26 101.62-0.47Q102.07 0 102.73 0L102.73 0Q102.99 0 103.25-0.11L103.25-0.11Q104.2-0.45 104.2-1.48L104.2-1.48 104.2-32.09Q104.2-32.7 103.75-33.14L103.75-33.14Q103.33-33.57 102.73-33.57L102.73-33.57ZM86.14-21.3L75.54-33.09Q74.88-33.83 73.93-33.46L73.93-33.46Q72.98-33.12 72.98-32.09L72.98-32.09 72.98-1.48Q72.98-0.87 73.41-0.42L73.41-0.42Q73.85 0 74.46 0L74.46 0Q75.07 0 75.49-0.42L75.49-0.42Q75.94-0.87 75.94-1.48L75.94-1.48 75.94-28.27 83.95-19.33Q84.38-18.88 84.98-18.85L84.98-18.85Q85.59-18.83 86.04-19.22L86.04-19.22Q86.48-19.64 86.54-20.25L86.54-20.25Q86.56-20.86 86.14-21.3L86.14-21.3ZM109.9-33.57Q109.29-33.57 108.84-33.14L108.84-33.14Q108.42-32.7 108.42-32.09L108.42-32.09 108.42-1.48Q108.42-0.87 108.84-0.42L108.84-0.42Q109.29 0 109.9 0L109.9 0Q110.5 0 110.93-0.42L110.93-0.42Q111.38-0.87 111.38-1.48L111.38-1.48 111.38-32.09Q111.38-32.7 110.93-33.14L110.93-33.14Q110.5-33.57 109.9-33.57L109.9-33.57ZM139.64-26.21L139.64-32.09Q139.64-32.7 139.19-33.14L139.19-33.14Q138.77-33.57 138.16-33.57L138.16-33.57Q137.56-33.57 137.14-33.14L137.14-33.14Q136.69-32.7 136.69-32.09L136.69-32.09 136.69-26.21Q136.69-22.91 134.37-20.59L134.37-20.59Q132.02-18.25 128.75-18.25L128.75-18.25 116.96-18.25Q116.36-18.25 115.91-17.82L115.91-17.82Q115.49-17.4 115.49-16.8L115.49-16.8Q115.49-16.16 115.91-15.74L115.91-15.74Q116.36-15.32 116.96-15.32L116.96-15.32 128.75-15.32Q132.02-15.32 134.37-12.97L134.37-12.97Q136.69-10.65 136.69-7.36L136.69-7.36 136.69-1.48Q136.69-0.87 137.14-0.42L137.14-0.42Q137.56 0 138.16 0L138.16 0Q138.77 0 139.19-0.42L139.19-0.42Q139.64-0.87 139.64-1.48L139.64-1.48 139.64-7.36Q139.64-10.34 138.14-12.87L138.14-12.87Q136.69-15.35 134.21-16.8L134.21-16.8Q136.69-18.22 138.14-20.7L138.14-20.7Q139.64-23.26 139.64-26.21L139.64-26.21ZM173.6-2.95L145.34-2.95Q144.73-2.95 144.28-2.5L144.28-2.5Q143.86-2.08 143.86-1.48L143.86-1.48Q143.86-0.87 144.28-0.42L144.28-0.42Q144.73 0 145.34 0L145.34 0 173.6 0Q174.21 0 174.63-0.42L174.63-0.42Q175.08-0.87 175.08-1.48L175.08-1.48Q175.08-2.08 174.63-2.5L174.63-2.5Q174.21-2.95 173.6-2.95L173.6-2.95ZM145.34-30.64L173.6-30.64Q174.21-30.64 174.63-31.06L174.63-31.06Q175.08-31.48 175.08-32.09L175.08-32.09Q175.08-32.7 174.63-33.14L174.63-33.14Q174.21-33.57 173.6-33.57L173.6-33.57 145.34-33.57Q144.73-33.57 144.28-33.14L144.28-33.14Q143.86-32.7 143.86-32.09L143.86-32.09Q143.86-31.48 144.28-31.06L144.28-31.06Q144.73-30.64 145.34-30.64L145.34-30.64ZM173.6-18.25L145.34-18.25Q144.73-18.25 144.28-17.82L144.28-17.82Q143.86-17.4 143.86-16.8L143.86-16.8Q143.86-16.16 144.28-15.74L144.28-15.74Q144.73-15.32 145.34-15.32L145.34-15.32 173.6-15.32Q174.21-15.32 174.63-15.74L174.63-15.74Q175.08-16.16 175.08-16.8L175.08-16.8Q175.08-17.4 174.63-17.82L174.63-17.82Q174.21-18.25 173.6-18.25L173.6-18.25ZM199.63 0L180.77 0Q180.17 0 179.72-0.42L179.72-0.42Q179.3-0.87 179.3-1.48L179.3-1.48Q179.3-2.08 179.72-2.5L179.72-2.5Q180.17-2.95 180.77-2.95L180.77-2.95 199.63-2.95Q202.9-2.95 205.24-5.27L205.24-5.27Q207.56-7.62 207.56-10.89L207.56-10.89 207.56-22.68Q207.56-25.97 205.24-28.29L205.24-28.29Q202.9-30.64 199.63-30.64L199.63-30.64 180.77-30.64Q180.17-30.64 179.72-31.06L179.72-31.06Q179.3-31.48 179.3-32.09L179.3-32.09Q179.3-32.7 179.72-33.14L179.72-33.14Q180.17-33.57 180.77-33.57L180.77-33.57 199.63-33.57Q204.13-33.57 207.33-30.38L207.33-30.38Q210.52-27.18 210.52-22.68L210.52-22.68 210.52-10.89Q210.52-6.38 207.33-3.19L207.33-3.19Q204.13 0 199.63 0L199.63 0Z" transform="translate(-2.109999895095825, 33.58333206176758)"></path></g>       </g></g> </g></mask><defs v-gra="od"><linearGradient x1="0" y1="1" x2="0" y2="0" id="ce79ebb4-b261-461b-b879-176661c0cd3a"><stop offset="0%" stop-color="#fbc2eb"></stop><stop offset="100%" stop-color="#a6c0ee"></stop></linearGradient><filter id="42443b3f1de60f6b6fd3b6a9844b4764" filterUnits="objectBoundingBox"><feColorMatrix type="matrix" values="0 0 0 0 0.99609375  0 0 0 0 0.99609375  0 0 0 0 0.99609375  0 0 0 1 0"></feColorMatrix></filter></defs><defs v-gra="id"><filter id="5e864d9a-47b5-4853-9022-95084f9d116e" filterUnits="userSpaceOnUse"><feColorMatrix type="matrix" values="0 0 0 0 0.99609375  0 0 0 0 0.99609375  0 0 0 0 0.99609375  0 0 0 1 0"></feColorMatrix></filter><linearGradient x1="0" y1="1" x2="0" y2="0" id="s6IL9dA-PAJD27zIAAOS0"><stop offset="0%" stop-color="#fbc2eb"></stop><stop offset="100%" stop-color="#a6c0ee"></stop></linearGradient><filter id="42443b3f1de60f6b6fd3b6a9844b4764" filterUnits="objectBoundingBox"><feColorMatrix type="matrix" values="0 0 0 0 0.99609375  0 0 0 0 0.99609375  0 0 0 0 0.99609375  0 0 0 1 0"></feColorMatrix></filter></defs><mask v-gra="im" id="2aea4a35-037f-4b8e-afaa-c7206f8664a0"><g mask="url(#420ccfc2-e377-4bc5-b7fc-c0a309a50b5e)" filter="url(#5e864d9a-47b5-4853-9022-95084f9d116e)"><g><rect fill="#fbc2eb" fill-opacity="0" stroke-width="2" x="0" y="0" width="132.5" height="132.6060848678943" class="image-rect"></rect> <svg x="0" y="0" width="132.5" height="132.6060848678943" filtersec="colorsb8224439657" class="image-svg-svg primary" style="overflow: visible;"><svg fill="#000000" xmlns="http://www.w3.org/2000/svg" viewBox="5.015323638916016 4.975105285644531 89.96699523925781 90.03902435302734" x="0px" y="0px"><path d="m 49.998819,4.9751055 c -24.821867,0 -44.9834934,20.1710675 -44.9834934,45.0195135 0,24.848447 20.1616264,45.019514 44.9834934,45.019514 24.821866,0 44.983493,-20.171067 44.983493,-45.019514 0,-24.848446 -20.161627,-45.0195135 -44.983493,-45.0195135 z m 0,3.0318545 c 23.226908,0 42.019464,18.787331 42.019464,41.987659 0,23.200328 -18.792556,41.987659 -42.019464,41.987659 -23.226908,0 -42.0194648,-18.787331 -42.0194648,-41.987659 0,-23.200328 18.7925568,-41.987659 42.0194648,-41.987659 z" color="#000"></path></svg></svg> <!----></g></g></mask></svg>